<svg xmlns="http://www.w3.org/2000/svg" xmlns:xlink="http://www.w3.org/1999/xlink" x="0px" y="0px"
	 width="24px" height="24px" viewBox="0 0 24 24" enable-background="new 0 0 24 24" xml:space="preserve">
<rect x="0.5" y="3.578" fill="none" stroke="#EE2852" stroke-miterlimit="10" width="23" height="17"/>
<path fill="#EE2852" d="M16.614,8H7.281v8h9.333V8z M8.615,15.335H7.948v-0.666v-1.336v-0.666l2-2.001l3.334,2.667l2.665-1.999
	v1.999v1.336v0.666h-0.665H8.615z M13.294,8.958c0.256,0,0.474,0.094,0.654,0.281c0.182,0.188,0.271,0.406,0.271,0.655
	s-0.09,0.468-0.271,0.654c-0.181,0.189-0.4,0.282-0.654,0.282c-0.258,0-0.479-0.093-0.657-0.282
	c-0.181-0.186-0.271-0.405-0.271-0.654s0-0.375,0-0.375s0.09-0.093,0.271-0.28C12.815,9.053,13.036,8.958,13.294,8.958z"/>
</svg>
