<svg xmlns="http://www.w3.org/2000/svg" xmlns:xlink="http://www.w3.org/1999/xlink" x="0px" y="0px"
	 width="24px" height="24px" viewBox="0 0 24 24" enable-background="new 0 0 24 24" xml:space="preserve">
<line fill="none" stroke="#EE2852" stroke-miterlimit="10" x1="4.484" y1="17.716" x2="19.484" y2="17.716"/>
<line fill="none" stroke="#EE2852" stroke-miterlimit="10" x1="6.984" y1="19.614" x2="16.984" y2="19.614"/>
<g>
	<path fill="#EE2852" d="M4.08,8.41C3.755,7.98,3.592,7.46,3.592,6.85c0-0.54,0.138-1.022,0.413-1.448
		c0.275-0.425,0.677-0.76,1.208-1.005C5.742,4.153,6.377,4.03,7.118,4.03c0.74,0,1.375,0.123,1.905,0.367
		c0.53,0.245,0.933,0.58,1.208,1.005c0.275,0.425,0.413,0.908,0.413,1.448c0,0.6-0.163,1.12-0.488,1.56
		C9.83,8.85,9.357,9.166,8.737,9.355c0.68,0.17,1.215,0.495,1.605,0.975c0.39,0.48,0.585,1.065,0.585,1.755
		c0,0.641-0.158,1.197-0.473,1.672s-0.76,0.844-1.335,1.104c-0.575,0.26-1.243,0.389-2.002,0.389c-0.76,0-1.428-0.129-2.002-0.389
		c-0.575-0.26-1.02-0.629-1.335-1.104c-0.315-0.475-0.472-1.031-0.472-1.672c0-0.69,0.195-1.275,0.585-1.755
		c0.39-0.479,0.925-0.805,1.605-0.975C4.877,9.156,4.405,8.84,4.08,8.41z M5.107,10.375c-0.52,0.371-0.78,0.931-0.78,1.681
		c0,0.719,0.25,1.285,0.75,1.693c0.5,0.41,1.18,0.615,2.04,0.615c0.85,0,1.525-0.207,2.025-0.621c0.5-0.416,0.75-0.979,0.75-1.688
		c0-0.741-0.258-1.298-0.772-1.673C8.605,10.007,7.938,9.82,7.118,9.82C6.297,9.82,5.627,10.005,5.107,10.375z M8.947,5.44
		c-0.45-0.36-1.06-0.54-1.83-0.54c-0.771,0-1.38,0.178-1.83,0.533C4.837,5.788,4.612,6.3,4.612,6.97c0,0.62,0.23,1.115,0.69,1.484
		C5.762,8.826,6.368,9.01,7.118,9.01s1.355-0.185,1.815-0.556c0.46-0.369,0.69-0.864,0.69-1.484C9.623,6.31,9.397,5.8,8.947,5.44z"
		/>
	<path fill="#EE2852" d="M16.83,10.398c1.005-1.096,1.508-2.168,1.508-3.218c0-0.69-0.173-1.243-0.518-1.658
		C17.475,5.108,16.912,4.9,16.133,4.9c-0.761,0-1.348,0.238-1.764,0.713c-0.414,0.475-0.646,1.107-0.697,1.897h-1.02
		c0.061-1.11,0.402-1.973,1.027-2.588C14.305,4.308,15.122,4,16.133,4c0.969,0,1.754,0.272,2.354,0.817
		c0.601,0.545,0.899,1.318,0.899,2.318c0,1.21-0.502,2.382-1.507,3.517c-1.005,1.136-2.243,2.244-3.712,3.324h5.549v0.885h-7.154
		v-0.75C14.402,12.729,15.824,11.493,16.83,10.398z"/>
</g>
<path fill="none" d="M14.146,2.805c0.46,0.48,1.109,0.72,1.95,0.72c0.47,0,0.902-0.097,1.298-0.292
	c0.395-0.195,0.712-0.482,0.952-0.862c0.239-0.38,0.36-0.835,0.36-1.365c0-0.365-0.054-0.697-0.146-1.005h-4.995
	c-0.065,0.255-0.109,0.525-0.109,0.825C13.457,1.665,13.687,2.325,14.146,2.805z"/>
</svg>
