<svg xmlns="http://www.w3.org/2000/svg" xmlns:xlink="http://www.w3.org/1999/xlink" x="0px" y="0px"
	 width="24px" height="24px" viewBox="0 0 24 24" enable-background="new 0 0 24 24" xml:space="preserve">
<polyline fill="none" stroke="#EE2A53" stroke-width="0.75" stroke-miterlimit="10" points="15.364,6.239 17.419,8.294 
	15.271,10.443 "/>
<line fill="none" stroke="#EE2A53" stroke-width="0.75" stroke-miterlimit="10" x1="5.179" y1="8.341" x2="17.179" y2="8.341"/>
<polyline fill="none" stroke="#EE2A53" stroke-width="0.75" stroke-miterlimit="10" points="15.484,13.538 17.539,15.593 
	15.391,17.742 "/>
<line fill="none" stroke="#EE2A53" stroke-width="0.75" stroke-miterlimit="10" x1="5.299" y1="15.64" x2="17.299" y2="15.64"/>
<g>
	<path fill="#EE2852" d="M1.327,6.598V6.017h1.316v5.061H1.999v-4.48H1.327z"/>
</g>
<g>
	<path fill="#EE2852" d="M1.407,13.32c0.299-0.242,0.686-0.364,1.162-0.364c0.317,0,0.591,0.058,0.822,0.172s0.406,0.27,0.525,0.466
		c0.119,0.195,0.179,0.417,0.179,0.664c0,0.29-0.083,0.539-0.249,0.75c-0.166,0.209-0.381,0.345-0.647,0.405v0.035
		c0.303,0.075,0.543,0.222,0.721,0.44c0.177,0.22,0.266,0.507,0.266,0.861c0,0.266-0.061,0.506-0.182,0.718
		c-0.122,0.212-0.304,0.38-0.546,0.501S2.923,18.15,2.583,18.15c-0.495,0-0.9-0.13-1.218-0.389s-0.495-0.627-0.532-1.103h0.616
		c0.033,0.28,0.147,0.509,0.343,0.687c0.196,0.177,0.458,0.266,0.784,0.266s0.575-0.085,0.746-0.256
		c0.17-0.17,0.255-0.391,0.255-0.661c0-0.351-0.117-0.603-0.35-0.756c-0.233-0.154-0.585-0.231-1.057-0.231H2.009v-0.531h0.168
		C2.606,15.17,2.93,15.1,3.15,14.962c0.219-0.138,0.329-0.351,0.329-0.641c0-0.247-0.08-0.446-0.241-0.595
		c-0.161-0.149-0.391-0.225-0.689-0.225c-0.29,0-0.523,0.075-0.7,0.225c-0.177,0.148-0.282,0.35-0.315,0.602H0.91
		C0.942,13.898,1.108,13.563,1.407,13.32z"/>
</g>
<g>
	<path fill="#EE2852" d="M21.088,9.468c0.336-0.306,0.62-0.625,0.851-0.959s0.346-0.662,0.346-0.983c0-0.304-0.072-0.542-0.22-0.718
		c-0.147-0.175-0.384-0.262-0.71-0.262c-0.318,0-0.564,0.099-0.739,0.297c-0.175,0.199-0.27,0.463-0.283,0.795h-0.616
		c0.019-0.523,0.178-0.927,0.477-1.211S20.876,6,21.347,6c0.48,0,0.862,0.133,1.145,0.399c0.283,0.266,0.424,0.632,0.424,1.099
		c0,0.388-0.115,0.765-0.347,1.131s-0.493,0.688-0.788,0.966c-0.293,0.278-0.669,0.601-1.127,0.97h2.408v0.531h-3.367V10.64
		C20.288,10.166,20.752,9.774,21.088,9.468z"/>
</g>
<g>
	<path fill="#EE2852" d="M19.239,16.988v-0.482l2.457-3.402h0.763v3.332h0.7v0.553h-0.7v1.127h-0.63v-1.127H19.239z M21.856,13.768
		l-1.883,2.668h1.883V13.768z"/>
</g>
</svg>
