<svg xmlns="http://www.w3.org/2000/svg" xmlns:xlink="http://www.w3.org/1999/xlink" x="0px" y="0px"
	 width="24px" height="24px" viewBox="0 0 24 24" enable-background="new 0 0 24 24" xml:space="preserve">
<path fill="none" stroke="#EE2852" d="M6.714,4.92c1.278,0,2.308,0.459,3.085,1.375c0.778,0.916,1.168,2.118,1.168,3.604
	c0,1.937-0.571,3.744-1.712,5.419c-1.142,1.678-2.56,2.93-4.253,3.762L4.69,18.457c0.726-0.553,1.366-1.262,1.919-2.127
	c0.553-0.863,0.95-1.936,1.193-3.215l-1.089-0.26c-1.212-0.277-2.152-0.785-2.827-1.53c-0.674-0.744-1.011-1.634-1.011-2.671
	c0-1.106,0.371-2.005,1.114-2.696C4.734,5.266,5.641,4.92,6.714,4.92z"/>
<path fill="none" stroke="#EE2852" d="M16.879,4.92c1.278,0,2.308,0.459,3.086,1.375c0.777,0.916,1.167,2.118,1.167,3.604
	c0,1.937-0.57,3.744-1.712,5.419c-1.141,1.678-2.56,2.93-4.253,3.762l-0.311-0.623c0.726-0.553,1.365-1.262,1.919-2.127
	c0.552-0.863,0.95-1.936,1.192-3.215l-1.089-0.26c-1.211-0.277-2.152-0.785-2.827-1.53c-0.674-0.744-1.011-1.634-1.011-2.671
	c0-1.106,0.371-2.005,1.115-2.696C14.898,5.266,15.807,4.92,16.879,4.92z"/>
<rect x="2.876" y="8.827" fill="none" width="19.754" height="15"/>
</svg>
