<svg xmlns="http://www.w3.org/2000/svg" xmlns:xlink="http://www.w3.org/1999/xlink" x="0px" y="0px"
	 width="24px" height="24px" viewBox="0 0 24 24" enable-background="new 0 0 24 24" xml:space="preserve">
<path fill="none" d="M16.44,6.21c0-0.414-0.083-0.773-0.25-1.08s-0.392-0.54-0.675-0.7S14.92,4.19,14.58,4.19
	c-0.333,0-0.641,0.082-0.924,0.245c-0.284,0.164-0.511,0.4-0.681,0.71c-0.17,0.31-0.255,0.668-0.255,1.075
	c0,0.414,0.085,0.775,0.255,1.085c0.068,0.125,0.153,0.23,0.241,0.332h2.735c0.087-0.102,0.171-0.207,0.238-0.332
	C16.357,6.995,16.44,6.63,16.44,6.21z"/>
<path fill="none" d="M21.775,4.365C21.512,4.235,21.221,4.17,20.9,4.17c-0.46,0-0.852,0.146-1.176,0.44
	c-0.322,0.293-0.508,0.7-0.555,1.22h3.461c0-0.346-0.077-0.645-0.23-0.895S22.039,4.495,21.775,4.365z"/>
<polygon fill="#EE2852" points="5.061,2 0.34,2 0.34,2.74 2.25,2.74 2.25,8.97 3.161,8.97 3.161,2.74 5.061,2.74 "/>
<polygon fill="#EE2852" points="8.373,7.637 8.147,7.637 8.261,7.93 "/>
<path fill="#EE2852" d="M23.57,6.02c0-0.5-0.108-0.948-0.325-1.345c-0.216-0.396-0.524-0.708-0.925-0.935S21.461,3.4,20.94,3.4
	c-0.534,0-1.005,0.115-1.415,0.345S18.797,4.304,18.57,4.73c-0.227,0.427-0.34,0.924-0.34,1.49c0,0.535,0.112,1.004,0.32,1.417h-1.5
	c0.21-0.421,0.32-0.895,0.32-1.427c0-0.56-0.113-1.052-0.34-1.475c-0.228-0.423-0.539-0.751-0.936-0.985
	c-0.396-0.233-0.838-0.35-1.325-0.35c-0.474,0-0.888,0.105-1.245,0.315C13.169,3.925,12.9,4.187,12.721,4.5V3.49h-0.91v4.147H9.203
	l1.698-4.147H9.96L8.373,7.637H8.147L6.541,3.49h-1.01l1.691,4.147H5v14.001h14V8.391c0.129,0.116,0.391,0.231,0.545,0.319
	c0.41,0.233,0.875,0.35,1.396,0.35c0.653,0,1.2-0.165,1.64-0.495c0.44-0.33,0.733-0.758,0.881-1.285h-0.98
	c-0.107,0.307-0.292,0.552-0.555,0.735C21.662,8.199,21.334,8.29,20.94,8.29c-0.479,0-0.889-0.151-1.226-0.455
	C19.379,7.532,19.193,7.11,19.16,6.57h4.381C23.561,6.377,23.57,6.194,23.57,6.02z M12.976,5.145c0.17-0.31,0.396-0.546,0.681-0.71
	c0.283-0.163,0.591-0.245,0.924-0.245c0.34,0,0.652,0.08,0.936,0.24s0.508,0.394,0.675,0.7s0.25,0.667,0.25,1.08
	c0,0.42-0.083,0.785-0.25,1.095c-0.067,0.125-0.151,0.23-0.238,0.332h-2.735c-0.088-0.102-0.173-0.207-0.241-0.332
	c-0.17-0.31-0.255-0.671-0.255-1.085C12.721,5.813,12.806,5.455,12.976,5.145z M18,20.639H6V8.637h1.63h1.164h3.017h0.91h0.67h2.783
	H18V20.639z M19.17,5.83c0.047-0.52,0.232-0.926,0.555-1.22c0.324-0.293,0.716-0.44,1.176-0.44c0.32,0,0.611,0.065,0.875,0.195
	s0.472,0.32,0.625,0.57s0.23,0.549,0.23,0.895H19.17z"/>
</svg>
