<svg xmlns="http://www.w3.org/2000/svg" xmlns:xlink="http://www.w3.org/1999/xlink" x="0px" y="0px"
	 width="24px" height="24px" viewBox="0 0 24 24" xml:space="preserve">
<line fill="none" stroke="#EE2852" stroke-miterlimit="10" x1="4.484" y1="21.625" x2="19.484" y2="21.625"/>
<line fill="none" stroke="#EE2852" stroke-miterlimit="10" x1="6.984" y1="23.523" x2="16.984" y2="23.523"/>
<g>
	<path fill="#EE2852" d="M2.948,16.294v-0.796l5.46-7.349h1.245v7.23h1.605v0.915H9.653v2.55H8.618v-2.55H2.948z M8.663,9.304
		l-4.5,6.075h4.5V9.304z"/>
</g>
<path fill="none" d="M17.896,14.197c0.459-0.369,0.689-0.865,0.689-1.484c0-0.66-0.225-1.17-0.676-1.531
	c-0.449-0.36-1.06-0.54-1.829-0.54c-0.771,0-1.38,0.178-1.83,0.533s-0.675,0.868-0.675,1.538c0,0.619,0.229,1.115,0.689,1.484
	c0.46,0.37,1.065,0.555,1.815,0.555S17.436,14.567,17.896,14.197z"/>
<path fill="none" d="M18.084,16.125c-0.516-0.375-1.184-0.563-2.003-0.563c-0.82,0-1.49,0.186-2.011,0.555
	c-0.52,0.37-0.779,0.93-0.779,1.68c0,0.071,0.014,0.135,0.019,0.203h5.527c0.005-0.068,0.019-0.132,0.019-0.203
	C18.855,17.057,18.598,16.5,18.084,16.125z"/>
<path fill="#EE2852" d="M13.291,17.797c0-0.75,0.26-1.31,0.779-1.68c0.521-0.369,1.19-0.555,2.011-0.555
	c0.819,0,1.487,0.188,2.003,0.563c0.514,0.375,0.771,0.932,0.771,1.672c0,0.071-0.014,0.135-0.019,0.203h1.043
	c0.003-0.059,0.011-0.113,0.011-0.173c0-0.69-0.195-1.274-0.585-1.755s-0.925-0.805-1.604-0.975c0.619-0.19,1.092-0.506,1.417-0.945
	s0.487-0.96,0.487-1.561c0-0.539-0.137-1.022-0.412-1.447c-0.275-0.425-0.678-0.76-1.207-1.005
	c-0.531-0.245-1.166-0.367-1.905-0.367c-0.74,0-1.376,0.123-1.905,0.367c-0.53,0.245-0.933,0.58-1.207,1.005
	c-0.275,0.425-0.413,0.908-0.413,1.447c0,0.61,0.163,1.131,0.487,1.561c0.325,0.43,0.798,0.745,1.418,0.945
	c-0.68,0.17-1.215,0.494-1.605,0.975c-0.39,0.48-0.584,1.064-0.584,1.755c0,0.06,0.008,0.114,0.011,0.173h1.027
	C13.305,17.932,13.291,17.868,13.291,17.797z M14.266,14.197c-0.46-0.369-0.689-0.865-0.689-1.484c0-0.67,0.225-1.183,0.675-1.538
	s1.06-0.533,1.83-0.533c0.77,0,1.38,0.18,1.829,0.54c0.451,0.36,0.676,0.871,0.676,1.531c0,0.619-0.23,1.115-0.689,1.484
	c-0.461,0.37-1.065,0.555-1.815,0.555S14.726,14.567,14.266,14.197z"/>
<path fill="none" d="M14.146,2.805c0.46,0.48,1.109,0.72,1.95,0.72c0.47,0,0.902-0.097,1.298-0.292
	c0.395-0.195,0.712-0.482,0.952-0.862c0.239-0.38,0.36-0.835,0.36-1.365c0-0.365-0.054-0.697-0.146-1.005h-4.995
	c-0.065,0.255-0.109,0.525-0.109,0.825C13.457,1.665,13.687,2.325,14.146,2.805z"/>
<path fill="#EE2852" d="M18.707,1.005c0,0.53-0.121,0.985-0.36,1.365c-0.24,0.38-0.558,0.667-0.952,0.862
	c-0.396,0.195-0.828,0.292-1.298,0.292c-0.841,0-1.49-0.24-1.95-0.72s-0.689-1.14-0.689-1.98c0-0.3,0.044-0.57,0.109-0.825h-1.027
	c-0.053,0.273-0.088,0.556-0.088,0.855c0,1.12,0.318,1.995,0.953,2.625s1.477,0.945,2.527,0.945c0.689,0,1.303-0.157,1.838-0.472
	c0.534-0.315,0.896-0.748,1.087-1.298c0.04,1.7-0.167,2.917-0.622,3.653c-0.455,0.735-1.152,1.103-2.093,1.103
	c-0.681,0-1.216-0.175-1.604-0.525c-0.391-0.35-0.641-0.85-0.75-1.5h-0.976c0.1,0.87,0.425,1.573,0.976,2.108
	c0.549,0.535,1.319,0.802,2.31,0.802c1.35,0,2.302-0.47,2.857-1.41c0.555-0.939,0.833-2.345,0.833-4.215
	c0-1.042-0.115-1.92-0.318-2.67h-0.907C18.653,0.308,18.707,0.64,18.707,1.005z"/>
</svg>
