<svg xmlns="http://www.w3.org/2000/svg" xmlns:xlink="http://www.w3.org/1999/xlink" x="0px" y="0px"
	 width="24px" height="24px" viewBox="0 0 24 24" xml:space="preserve">
<circle fill="none" stroke="#EE2A53" stroke-miterlimit="10" cx="9.711" cy="9.708" r="1.5"/>
<circle fill="none" stroke="#EE2A53" stroke-miterlimit="10" cx="14.088" cy="14.476" r="1.5"/>
<line fill="none" stroke="#EE2A53" stroke-miterlimit="10" x1="9.525" y1="14.475" x2="14.476" y2="9.525"/>
<path fill="none" d="M12,5.75V3.998c-4.411,0-7.999,3.589-7.999,8s3.588,8,7.999,8c4.411,0,8-3.589,8-8
	c0-0.498-0.052-0.982-0.139-1.455l-2.027,0.374L12,5.75z"/>
<path fill="none" d="M21,11.999c0,4.962-4.037,9-9,9c-4.962,0-8.999-4.038-8.999-9c0-4.963,4.037-9,8.999-9v-2
	c-6.065,0-11,4.935-11,11c0,6.066,4.935,11,11,11c6.065,0,11-4.935,11-11c0-0.683-0.071-1.349-0.19-1.998l-1.966,0.362
	C20.941,10.894,21,11.439,21,11.999z"/>
<path fill="#EE2852" d="M22.81,10c0.119,0.649,0.19,1.315,0.19,1.998c0,6.066-4.935,11-11,11c-6.065,0-11-4.935-11-11
	c0-6.065,4.935-11,11-11v-1c-6.617,0-12,5.383-12,12s5.383,12,12,12c6.617,0,12-5.384,12-12c0-0.745-0.077-1.471-0.208-2.179
	L22.81,10z"/>
<path fill="#EE2852" d="M3.001,11.999c0,4.962,4.037,9,8.999,9c4.963,0,9-4.038,9-9c0-0.559-0.059-1.104-0.156-1.636l-0.982,0.181
	C19.948,11.016,20,11.501,20,11.999c0,4.412-3.589,8-8,8c-4.411,0-7.999-3.589-7.999-8s3.588-8,7.999-8v-1
	C7.038,2.998,3.001,7.036,3.001,11.999z"/>
</svg>
