<svg xmlns="http://www.w3.org/2000/svg" xmlns:xlink="http://www.w3.org/1999/xlink" x="0px" y="0px"
	 width="24px" height="24px" viewBox="0 0 24 24" xml:space="preserve">
<rect x="0.5" y="4.5" fill="none" stroke="#EE2E54" stroke-miterlimit="10" width="22.999" height="15"/>
<g>
	<path fill="#EE2C53" d="M15.999,9.274v0.141v1.563v4.39c0,0.135-0.049,0.252-0.148,0.352s-0.217,0.148-0.352,0.148h-7
		c-0.136,0-0.253-0.049-0.352-0.148C8.048,15.619,8,15.502,8,15.367v-4.39V9.415V9.274h0.031C8.103,9.035,8.259,8.915,8.5,8.915H9
		v0.5v0.281c0,0.209,0.072,0.386,0.219,0.531c0.146,0.146,0.322,0.219,0.531,0.219c0.208,0,0.385-0.072,0.531-0.219
		c0.146-0.146,0.219-0.322,0.219-0.531V9.415v-0.5h3v0.5v0.281c0,0.209,0.072,0.386,0.219,0.531
		c0.146,0.146,0.322,0.219,0.531,0.219s0.385-0.072,0.531-0.219c0.146-0.146,0.219-0.322,0.219-0.531V9.415v-0.5h0.5
		c0.24,0,0.396,0.12,0.469,0.359H15.999z M15.499,11.368h-7v4h7V11.368z M9.5,9.696V8.118c0-0.072,0.023-0.133,0.07-0.18
		s0.104-0.07,0.172-0.07c0.067,0,0.127,0.023,0.18,0.07C9.973,7.985,10,8.045,10,8.118v1.578c0,0.073-0.026,0.133-0.078,0.18
		c-0.053,0.047-0.112,0.07-0.18,0.07c-0.068,0-0.125-0.023-0.172-0.07S9.5,9.769,9.5,9.696z M13.999,9.696V8.118
		c0-0.072,0.023-0.133,0.07-0.18s0.107-0.07,0.18-0.07s0.133,0.023,0.18,0.07s0.07,0.107,0.07,0.18v1.578
		c0,0.073-0.023,0.133-0.07,0.18s-0.107,0.07-0.18,0.07s-0.133-0.023-0.18-0.07S13.999,9.769,13.999,9.696z"/>
</g>
</svg>
