<svg xmlns="http://www.w3.org/2000/svg" xmlns:xlink="http://www.w3.org/1999/xlink" x="0px" y="0px"
	 width="24px" height="24px" viewBox="0 0 24 24" enable-background="new 0 0 24 24" xml:space="preserve">
<path fill="#EE2852" d="M24,16.584V4.481C24,3.665,23.322,3,22.488,3H1.511C0.677,3,0,3.665,0,4.481V19.52
	C0,20.336,0.677,21,1.511,21h18.001H21.5c0.826,0,1.5,0.673,1.5,1.5l0,0h1l0,0V16.584L24,16.584z M23,20.5l-0.029-0.01
	c-0.068-0.05-0.141-0.091-0.215-0.134c-0.055-0.034-0.111-0.067-0.17-0.097c-0.066-0.032-0.135-0.062-0.205-0.088
	c-0.08-0.032-0.164-0.058-0.25-0.08c-0.057-0.016-0.111-0.032-0.17-0.044C21.811,20.02,21.658,20,21.5,20H1.511
	C1.229,20,1,19.784,1,19.52V4.481C1,4.216,1.229,4,1.511,4h20.978C22.77,4,23,4.216,23,4.481V20.5z"/>
<g>
	<path fill="#EE2852" d="M11.348,14.783c0.01-0.575,0.088-1.038,0.234-1.39s0.461-0.765,0.945-1.24s0.795-0.813,0.934-1.01
		s0.246-0.414,0.322-0.651c0.076-0.236,0.113-0.506,0.113-0.809c0-0.609-0.162-1.089-0.486-1.438
		c-0.325-0.349-0.777-0.523-1.359-0.523c-0.585,0-1.058,0.168-1.417,0.502c-0.359,0.335-0.543,0.787-0.553,1.359H9.209
		c0.01-0.801,0.281-1.442,0.813-1.923c0.532-0.481,1.208-0.722,2.028-0.722c0.84,0,1.503,0.245,1.988,0.735
		c0.486,0.49,0.729,1.155,0.729,1.994c0,0.526-0.12,1.021-0.358,1.481c-0.24,0.461-0.693,0.999-1.363,1.613
		c-0.551,0.464-0.827,1.137-0.827,2.02H11.348z M11.231,17.233c0-0.167,0.052-0.308,0.157-0.424
		c0.105-0.115,0.253-0.173,0.443-0.173c0.186,0,0.333,0.058,0.444,0.173c0.109,0.116,0.164,0.257,0.164,0.424
		c0,0.162-0.055,0.299-0.164,0.409c-0.111,0.11-0.258,0.166-0.444,0.166c-0.19,0-0.338-0.056-0.443-0.166
		S11.231,17.396,11.231,17.233z"/>
</g>
</svg>
