<svg xmlns="http://www.w3.org/2000/svg" xmlns:xlink="http://www.w3.org/1999/xlink" x="0px" y="0px"
	 width="24px" height="24px" viewBox="0 0 24 24" enable-background="new 0 0 24 24" xml:space="preserve">
<g>
	<path fill="#EE2852" d="M11.296,22.152v-1.991c-1.068-0.092-2-0.446-2.793-1.064s-1.381-1.378-1.763-2.278l0.87-0.297
		c0.381,0.869,0.942,1.564,1.683,2.083c0.74,0.519,1.575,0.778,2.506,0.778c1.159,0,2.079-0.298,2.759-0.893
		c0.679-0.596,1.019-1.45,1.019-2.564c0-1.831-1.29-3.242-3.869-4.234c-0.657-0.26-1.198-0.5-1.625-0.721
		c-0.427-0.221-0.881-0.511-1.362-0.87c-0.48-0.358-0.843-0.79-1.087-1.293C7.389,8.303,7.267,7.739,7.267,7.113
		c0-0.992,0.355-1.808,1.064-2.449c0.71-0.641,1.698-0.992,2.965-1.053V1.848h0.825v1.809c0.885,0.077,1.65,0.343,2.3,0.801
		c0.648,0.458,1.095,1.053,1.339,1.786l-0.824,0.275c-0.58-1.404-1.717-2.106-3.41-2.106c-1.053,0-1.881,0.245-2.484,0.733
		c-0.603,0.488-0.904,1.16-0.904,2.014c0,0.489,0.103,0.927,0.309,1.316s0.526,0.736,0.961,1.042
		c0.435,0.306,0.832,0.546,1.19,0.721c0.358,0.176,0.851,0.394,1.476,0.652c0.596,0.244,1.114,0.492,1.557,0.744
		c0.443,0.252,0.896,0.576,1.362,0.973c0.466,0.397,0.824,0.878,1.076,1.442s0.378,1.198,0.378,1.9c0,1.267-0.397,2.27-1.19,3.01
		c-0.794,0.74-1.839,1.141-3.136,1.202v1.991H11.296z"/>
</g>
</svg>
