<svg xmlns="http://www.w3.org/2000/svg" xmlns:xlink="http://www.w3.org/1999/xlink" x="0px" y="0px"
	 width="24px" height="24px" viewBox="0 0 24 24" enable-background="new 0 0 24 24" xml:space="preserve">
<g>
	<path fill="#EE2852" d="M0,7.189V6.245h2.55V17H1.486V7.189H0z"/>
</g>
<g>
	<path fill="#EE2852" d="M21.14,12.566c1.005-1.094,1.507-2.167,1.507-3.217c0-0.689-0.172-1.242-0.518-1.658
		c-0.344-0.414-0.906-0.622-1.688-0.622c-0.76,0-1.348,0.237-1.762,0.713c-0.416,0.475-0.648,1.107-0.697,1.897h-1.021
		c0.06-1.11,0.402-1.973,1.027-2.588s1.442-0.922,2.452-0.922c0.971,0,1.756,0.271,2.355,0.816c0.6,0.546,0.9,1.318,0.9,2.318
		c0,1.21-0.503,2.383-1.508,3.518s-2.242,2.242-3.713,3.322h5.551v0.885h-7.155v-0.75C18.712,14.899,20.135,13.662,21.14,12.566z"/>
</g>
<polyline fill="none" stroke="#EE2A53" stroke-width="0.75" stroke-miterlimit="10" points="10.101,10.492 12.156,12.547 
	10.007,14.696 "/>
<line fill="none" stroke="#EE2A53" stroke-width="0.75" stroke-miterlimit="10" x1="6" y1="12.594" x2="12" y2="12.594"/>
</svg>
